<?xml version="1.0" encoding="UTF-8"?>
<!DOCTYPE svg PUBLIC "-//W3C//DTD SVG 1.1//EN" "http://www.w3.org/Graphics/SVG/1.1/DTD/svg11.dtd">
<!-- Creator: CorelDRAW X7 -->
<svg xmlns="http://www.w3.org/2000/svg" xml:space="preserve" width="183.787mm" height="111.007mm" version="1.1" style="shape-rendering:geometricPrecision; text-rendering:geometricPrecision; image-rendering:optimizeQuality; fill-rule:evenodd; clip-rule:evenodd"
viewBox="0 0 6967 4208"
 xmlns:xlink="http://www.w3.org/1999/xlink">
 <defs>
  <style type="text/css">
   <![CDATA[
    .fil0 {fill:#FDE182}
    .fil2 {fill:#DD1F3C;fill-rule:nonzero}
    .fil3 {fill:#3B3F4B;fill-rule:nonzero}
    .fil1 {fill:black;fill-rule:nonzero}
   ]]>
  </style>
 </defs>
 <g id="Layer_x0020_1">
  <metadata id="CorelCorpID_0Corel-Layer"/>
  <g id="_344748808">
   <rect class="fil0" width="6967" height="4208"/>
   <g>
    <path class="fil1" d="M754 1689l-29 0 0 -191c0,-16 0,-31 1,-45 -3,3 -5,6 -9,8 -3,3 -17,15 -43,36l-16 -21 71 -55 25 0 0 268zm279 -134c0,46 -7,81 -21,104 -15,22 -37,34 -67,34 -29,0 -51,-12 -66,-35 -15,-24 -23,-58 -23,-103 0,-47 8,-81 22,-104 15,-22 37,-34 67,-34 29,0 51,12 66,36 15,23 22,57 22,102zm-146 0c0,39 5,67 14,85 9,18 24,27 44,27 20,0 35,-9 44,-27 9,-18 13,-47 13,-85 0,-39 -4,-67 -13,-85 -9,-18 -24,-26 -44,-26 -20,0 -35,8 -44,26 -9,18 -14,46 -14,85zm209 -54c0,21 3,37 7,47 5,10 12,15 22,15 20,0 30,-20 30,-62 0,-41 -10,-62 -30,-62 -10,0 -17,6 -22,16 -4,10 -7,26 -7,46zm84 0c0,28 -5,49 -14,63 -9,14 -23,22 -41,22 -17,0 -30,-8 -40,-22 -9,-15 -14,-36 -14,-63 0,-27 5,-48 14,-62 9,-14 22,-21 40,-21 18,0 31,7 41,21 9,15 14,36 14,62zm77 108c0,20 3,36 7,46 5,11 12,16 22,16 11,0 18,-5 23,-15 5,-11 7,-26 7,-47 0,-21 -2,-37 -7,-47 -5,-10 -12,-15 -23,-15 -10,0 -17,5 -22,15 -4,10 -7,26 -7,47zm84 0c0,27 -4,48 -14,63 -9,14 -23,21 -41,21 -17,0 -30,-7 -40,-22 -9,-14 -14,-35 -14,-62 0,-28 5,-49 14,-63 9,-14 22,-21 40,-21 18,0 31,7 41,21 9,15 14,35 14,63zm-47 -188l-148 268 -27 0 148 -268 27 0zm433 134c0,43 -11,76 -32,101 -22,25 -52,37 -91,37 -39,0 -70,-12 -91,-36 -21,-24 -32,-58 -32,-102 0,-44 11,-78 32,-102 22,-24 52,-36 92,-36 38,0 68,12 90,37 21,24 32,58 32,101zm-213 0c0,36 8,64 23,82 15,19 38,28 67,28 30,0 52,-9 67,-28 16,-18 23,-46 23,-82 0,-36 -7,-63 -22,-82 -16,-19 -38,-28 -67,-28 -30,0 -53,9 -68,28 -15,19 -23,46 -23,82zm486 -43l-51 0 0 177 -31 0 0 -177 -36 0 0 -14 36 -11 0 -11c0,-49 22,-74 65,-74 10,0 23,2 37,7l-8 24c-11,-4 -21,-6 -30,-6 -11,0 -20,4 -25,12 -6,7 -8,20 -8,37l0 13 51 0 0 23zm-127 0l-51 0 0 177 -31 0 0 -177 -36 0 0 -14 36 -11 0 -11c0,-49 22,-74 65,-74 10,0 23,2 37,7l-8 24c-11,-4 -21,-6 -30,-6 -11,0 -20,4 -25,12 -6,7 -8,20 -8,37l0 13 51 0 0 23z"/>
    <path class="fil1" d="M894 2228l-72 0 -116 -203 -2 0c3,36 4,62 4,77l0 126 -51 0 0 -268 72 0 116 201 1 0c-2,-35 -3,-60 -3,-74l0 -127 51 0 0 268zm222 0l-154 0 0 -268 154 0 0 47 -98 0 0 59 91 0 0 46 -91 0 0 69 98 0 0 47zm316 0l-64 0 -37 -141c-1,-5 -3,-15 -6,-31 -4,-15 -5,-26 -6,-31 -1,6 -3,17 -5,31 -3,15 -6,25 -7,32l-36 140 -65 0 -68 -268 56 0 34 146c6,27 10,51 13,71 1,-7 2,-18 5,-33 3,-14 5,-26 8,-34l39 -150 53 0 39 150c2,7 4,17 7,31 2,14 4,26 5,36 2,-10 4,-22 6,-36 3,-14 5,-26 8,-35l34 -146 55 0 -68 268zm363 0l-19 -64 -98 0 -19 64 -61 0 94 -269 70 0 94 269 -61 0zm-33 -111c-18,-58 -28,-91 -30,-98 -2,-8 -4,-14 -5,-18 -4,15 -15,54 -34,116l69 0zm185 -38l18 0c18,0 31,-3 40,-9 8,-6 13,-15 13,-28 0,-13 -5,-22 -13,-27 -9,-6 -23,-8 -41,-8l-17 0 0 72zm0 46l0 103 -57 0 0 -268 78 0c36,0 63,7 81,20 17,13 26,34 26,60 0,16 -4,30 -13,42 -9,13 -21,22 -37,29 40,60 67,99 79,117l-63 0 -64 -103 -30 0zm247 -46l19 0c18,0 31,-3 39,-9 9,-6 13,-15 13,-28 0,-13 -4,-22 -13,-27 -9,-6 -22,-8 -40,-8l-18 0 0 72zm0 46l0 103 -56 0 0 -268 78 0c36,0 63,7 80,20 18,13 26,34 26,60 0,16 -4,30 -13,42 -8,13 -20,22 -36,29 40,60 66,99 78,117l-63 0 -63 -103 -31 0zm191 103l0 -268 57 0 0 268 -57 0zm277 -268l57 0 -91 268 -62 0 -91 -268 58 0 50 160c3,9 6,20 9,32 3,13 5,22 5,27 2,-12 6,-31 14,-59l51 -160zm240 268l-20 -64 -97 0 -20 64 -61 0 95 -269 69 0 95 269 -61 0zm-33 -111c-18,-58 -28,-91 -31,-98 -2,-8 -4,-14 -4,-18 -5,15 -16,54 -35,116l70 0zm127 111l0 -268 57 0 0 221 109 0 0 47 -166 0z"/>
    <path class="fil1" d="M785 2670c0,19 -7,35 -21,46 -15,11 -35,17 -59,17 -27,0 -48,-4 -62,-11l0 -25c9,4 19,7 30,9 11,3 22,4 33,4 17,0 30,-4 39,-10 9,-7 14,-16 14,-28 0,-8 -2,-14 -5,-19 -3,-5 -9,-10 -16,-14 -7,-4 -19,-9 -34,-15 -21,-7 -36,-16 -45,-26 -9,-11 -13,-24 -13,-41 0,-17 6,-31 19,-41 13,-11 31,-16 52,-16 23,0 44,4 62,13l-8 22c-18,-7 -37,-11 -54,-11 -14,0 -25,3 -33,9 -8,6 -12,14 -12,25 0,7 2,14 5,19 3,5 7,9 14,14 7,4 18,8 32,14 23,8 40,17 49,27 9,9 13,22 13,38zm159 60l0 -110c0,-14 -3,-24 -10,-31 -6,-7 -16,-10 -29,-10 -18,0 -31,5 -39,14 -9,10 -13,26 -13,48l0 89 -25 0 0 -241 25 0 0 73c0,8 0,16 -1,22l2 0c5,-9 12,-15 21,-20 9,-4 20,-7 32,-7 21,0 36,5 47,15 10,10 15,26 15,47l0 111 -25 0zm224 -85c0,27 -7,49 -20,65 -14,15 -34,23 -58,23 -15,0 -29,-4 -41,-11 -11,-7 -20,-17 -27,-31 -6,-13 -9,-28 -9,-46 0,-28 7,-50 20,-65 14,-15 33,-23 58,-23 24,0 42,8 56,24 14,15 21,37 21,64zm-129 0c0,21 5,38 13,49 9,12 22,17 38,17 17,0 30,-5 39,-17 8,-11 13,-28 13,-49 0,-22 -5,-38 -13,-49 -9,-12 -22,-17 -39,-17 -17,0 -29,5 -38,16 -8,11 -13,28 -13,50zm253 88c-11,0 -21,-2 -30,-6 -9,-4 -17,-11 -23,-19l-2 0c2,10 2,19 2,28l0 70 -26 0 0 -246 21 0 4 23 1 0c7,-9 14,-16 23,-20 9,-4 19,-6 30,-6 23,0 40,8 53,23 12,15 18,37 18,65 0,28 -6,49 -19,65 -12,15 -29,23 -52,23zm-3 -154c-18,0 -30,5 -38,14 -8,10 -12,25 -12,46l0 6c0,24 4,41 12,51 8,10 21,15 38,15 15,0 26,-6 35,-18 8,-11 12,-28 12,-49 0,-21 -4,-37 -12,-48 -9,-12 -20,-17 -35,-17zm382 151l-30 0 -124 -190 -1 0c1,22 2,42 2,61l0 129 -24 0 0 -227 30 0 123 190 1 0c0,-3 0,-12 -1,-27 -1,-15 -1,-26 -1,-33l0 -130 25 0 0 227zm204 -85c0,27 -7,49 -21,65 -13,15 -33,23 -57,23 -15,0 -29,-4 -41,-11 -11,-7 -20,-17 -27,-31 -6,-13 -9,-28 -9,-46 0,-28 6,-50 20,-65 14,-15 33,-23 58,-23 24,0 42,8 56,24 14,15 21,37 21,64zm-129 0c0,21 4,38 13,49 9,12 22,17 38,17 17,0 30,-5 39,-17 8,-11 13,-28 13,-49 0,-22 -5,-38 -13,-49 -9,-12 -22,-17 -39,-17 -17,0 -29,5 -38,16 -9,11 -13,28 -13,50zm307 85l-32 -100c-1,-6 -5,-20 -11,-41l-1 0c-4,18 -7,32 -11,41l-32 100 -29 0 -47 -170 27 0c11,43 20,75 25,97 6,23 9,38 10,45l1 0c2,-5 3,-13 6,-22 2,-10 5,-17 6,-23l32 -97 27 0 31 97c6,18 9,33 12,45l1 0c0,-4 1,-9 3,-17 2,-8 13,-49 32,-125l27 0 -47 170 -30 0z"/>
   </g>
   <g>
    <path class="fil2" d="M5585 2524c-79,-97 -260,-230 -160,-370 55,-77 185,-63 215,-167 1,-5 2,-10 3,-14 8,-40 -4,-80 -27,-113 -1,-1 -2,-3 -3,-6 -72,-128 -239,-169 -356,-81 -97,73 -128,163 -128,163 -10,-88 -49,-149 -89,-189 -45,-46 -123,-42 -161,12 -107,155 -46,345 -32,516 1,14 2,27 2,40 194,-157 496,-141 496,-141 -254,66 -451,266 -525,350 -29,111 -75,218 -106,330 -102,363 -22,750 59,1118 20,-249 220,-453 447,-557 70,-32 140,-68 210,-101 15,-7 30,-14 45,-20 109,-48 214,-105 226,-229 19,-185 4,-392 -116,-541z"/>
    <path class="fil2" d="M4571 3114c-335,-207 -558,-577 -558,-999 0,-113 16,-223 46,-327 -26,-4 -51,-12 -73,-24 -32,112 -50,229 -50,351 0,465 254,871 631,1086 1,-29 2,-58 4,-87z"/>
    <path class="fil2" d="M5753 999c-3,11 -7,21 -11,31 -5,11 -10,21 -15,31 -2,3 -3,6 -5,9 379,195 639,589 639,1045 0,427 -229,801 -570,1007 -12,48 -35,88 -63,121 420,-201 710,-631 710,-1128 0,-488 -279,-909 -685,-1116z"/>
    <path class="fil3" d="M5828 1662c-97,-91 -437,-163 -437,-163l0 0c-2,-12 -6,-25 -6,-38 1,-34 12,-67 33,-94 42,-54 114,-74 158,-127 54,-64 22,-133 53,-204 7,-15 15,-29 22,-44 22,-52 19,-122 17,-178 -2,-37 -19,-70 -32,-104 -15,-40 -16,-76 -25,-117 -13,-56 -71,-116 -110,-156 -64,-66 -121,-14 -195,-46 -6,-3 -12,-6 -18,-8 -59,-20 -149,28 -202,50 -56,24 -105,64 -144,111 -9,10 -17,21 -26,32 -26,34 -52,65 -101,69 -33,3 -69,3 -95,23 -25,19 -35,52 -44,83 -6,22 -12,44 -18,66 -15,54 -45,75 -101,70 -38,-2 -78,5 -108,28 -30,22 -49,62 -42,99 6,25 22,46 39,66 34,40 71,84 72,137 0,33 -17,66 -44,86 -27,20 -63,26 -95,16 -32,-10 -63,-39 -86,-58 -17,-14 -39,-16 -60,-17 -50,-3 -110,16 -135,65 -8,16 -16,32 -22,49 -12,36 -5,63 5,98 11,34 36,54 47,86 8,23 2,52 -19,64 -8,4 -17,6 -26,6 -23,1 -46,-3 -62,-19 -15,-15 -17,-45 1,-58 -40,17 -50,74 -26,110 24,36 71,51 114,48 32,-3 64,-15 87,-38 23,-23 35,-57 28,-88 -7,-26 -25,-47 -36,-71 -12,-24 -15,-57 5,-74 6,-6 14,-9 22,-11 38,-10 74,7 94,41 21,38 42,75 64,113 15,26 37,43 63,59 42,26 96,34 145,29 29,-3 51,-12 70,-24 -67,579 27,851 27,851 296,-288 675,-306 675,-306 -352,-77 -639,189 -639,189 -80,-343 0,-813 0,-813l0 0c6,-13 12,-26 18,-40 22,-50 76,-65 127,-64 82,3 167,36 239,75 41,-41 48,-127 47,-192 -154,-133 -159,-346 -117,-528 17,-75 123,-74 174,-25 21,20 30,50 36,78 11,47 24,101 69,119 19,8 40,7 61,10 46,6 89,34 113,73 70,113 -47,238 -144,290 -14,131 40,189 40,189 0,0 310,50 421,180 111,130 327,636 327,657 0,156 -375,391 -375,391 392,-191 456,-381 456,-381 0,0 -282,-630 -379,-720z"/>
   </g>
  </g>
 </g>
</svg>
