<?xml version="1.0" encoding="UTF-8"?>
<!DOCTYPE svg PUBLIC "-//W3C//DTD SVG 1.1//EN" "http://www.w3.org/Graphics/SVG/1.1/DTD/svg11.dtd">
<!-- Creator: CorelDRAW X7 -->
<svg xmlns="http://www.w3.org/2000/svg" xml:space="preserve" width="183.787mm" height="111.007mm" version="1.1" style="shape-rendering:geometricPrecision; text-rendering:geometricPrecision; image-rendering:optimizeQuality; fill-rule:evenodd; clip-rule:evenodd"
viewBox="0 0 11691 7062"
 xmlns:xlink="http://www.w3.org/1999/xlink">
 <defs>
  <style type="text/css">
   <![CDATA[
    .fil0 {fill:#E4F5FC}
    .fil1 {fill:#E73D36;fill-rule:nonzero}
    .fil2 {fill:#3B3F4B;fill-rule:nonzero}
    .fil3 {fill:black;fill-rule:nonzero}
   ]]>
  </style>
 </defs>
 <g id="Layer_x0020_1">
  <metadata id="CorelCorpID_0Corel-Layer"/>
  <g id="_336314368">
   <rect class="fil0" width="11691" height="7062"/>
   <g>
    <path class="fil1" d="M8681 3817c-65,-49 -194,57 -194,57 101,-36 194,0 194,0 0,0 93,-36 194,0 0,0 -129,-106 -194,-57z"/>
    <path class="fil1" d="M8681 3905c-88,-39 -195,-20 -194,-19 64,104 194,82 194,82 0,0 131,22 194,-82 1,-1 -106,-20 -194,19z"/>
    <path class="fil2" d="M6525 2446c0,0 -524,-651 72,-732 555,-75 2987,1734 4152,1658 173,-12 334,-108 411,-264 80,-162 62,-373 -454,-482 0,0 596,172 208,533 -389,361 -3911,-1555 -3911,-1555 0,0 -680,-334 -821,155 -100,344 343,687 343,687z"/>
    <path class="fil2" d="M7624 2198c-70,114 -128,184 -274,207 -90,14 -188,21 -256,81 -66,58 -87,150 -105,236 -12,62 -25,124 -37,186 -31,154 -109,216 -266,215 -104,0 -212,28 -291,97 -80,68 -124,181 -95,281 20,69 70,124 120,176 101,104 213,217 224,362 8,92 -32,187 -102,247 -71,60 -170,84 -260,62 -91,-22 -181,-95 -249,-143 -48,-33 -110,-34 -169,-34 -138,0 -300,66 -359,205 -19,46 -39,92 -51,141 -26,102 -1,174 35,268 35,91 108,142 146,229 26,61 16,143 -39,179 -22,14 -47,20 -73,23 -60,8 -127,1 -173,-39 -45,-41 -57,-122 -10,-162 -106,55 -122,216 -49,310 73,94 206,126 323,107 89,-13 175,-53 233,-120 59,-68 86,-165 59,-250 -22,-70 -77,-124 -113,-188 -37,-63 -53,-152 -1,-204 16,-17 38,-28 60,-35 103,-35 204,5 266,96 67,99 131,198 200,297 48,70 110,111 184,150 122,63 272,75 407,52 245,-43 318,-222 388,-424 50,-145 195,-195 336,-202 226,-10 470,66 675,157 105,-120 107,-357 90,-538 -449,-335 -505,-921 -426,-1433 9,-63 26,-136 84,-162 53,-24 117,5 154,50 37,45 55,102 78,155 32,73 80,145 154,175 87,37 185,8 276,-12 92,-19 201,-25 266,43 35,37 54,91 99,114 38,19 83,10 125,13 327,15 175,432 100,612 -77,185 -204,347 -375,453 -14,367 148,514 148,514 371,-317 683,-859 742,-1469 -714,-260 -1544,-737 -2199,-1078z"/>
    <path class="fil2" d="M8009 1761c0,0 888,763 1905,846 0,0 -1152,-392 -1905,-846z"/>
    <path class="fil2" d="M8049 1557c0,0 564,-870 1340,-588 856,312 697,1050 642,1333 0,0 -15,-1027 -721,-1199 -705,-173 -1261,454 -1261,454z"/>
    <path class="fil1" d="M7789 4726c-221,579 -354,1101 -181,1422l2384 0c0,0 -2010,-85 -2203,-1422z"/>
   </g>
   <path class="fil3" d="M1325 2889l-46 0 0 -295c0,-25 1,-48 3,-70 -4,4 -9,8 -14,13 -4,4 -27,22 -67,55l-25 -33 110 -84 39 0 0 414zm432 -208c0,72 -11,125 -34,161 -22,35 -57,53 -103,53 -45,0 -79,-18 -102,-55 -23,-36 -35,-89 -35,-159 0,-72 12,-125 34,-160 22,-35 57,-53 103,-53 45,0 79,19 102,55 24,36 35,89 35,158zm-226 0c0,60 7,104 21,132 14,27 37,41 68,41 31,0 54,-14 68,-42 14,-28 21,-71 21,-131 0,-59 -7,-103 -21,-131 -14,-27 -37,-41 -68,-41 -31,0 -54,14 -68,41 -14,27 -21,71 -21,131zm324 -83c0,32 3,56 10,72 7,16 18,24 34,24 31,0 46,-32 46,-96 0,-64 -15,-95 -46,-95 -16,0 -27,8 -34,23 -7,16 -10,40 -10,72zm129 0c0,43 -7,76 -21,98 -15,22 -36,33 -64,33 -26,0 -47,-11 -62,-34 -14,-22 -21,-55 -21,-97 0,-43 7,-75 21,-97 14,-21 35,-32 62,-32 27,0 48,11 63,34 15,22 22,54 22,95zm120 166c0,33 3,57 10,73 7,16 19,24 34,24 16,0 28,-8 36,-24 7,-16 11,-40 11,-73 0,-32 -4,-56 -11,-72 -8,-15 -20,-23 -36,-23 -15,0 -27,8 -34,23 -7,16 -10,40 -10,72zm130 0c0,43 -8,76 -22,98 -14,22 -36,33 -64,33 -26,0 -47,-12 -61,-34 -15,-23 -22,-55 -22,-97 0,-43 7,-75 21,-97 14,-21 35,-32 62,-32 27,0 48,11 63,33 15,22 23,54 23,96zm-73 -289l-230 414 -42 0 230 -414 42 0zm670 206c0,67 -17,119 -51,157 -33,38 -80,57 -140,57 -61,0 -108,-19 -141,-56 -33,-38 -49,-90 -49,-158 0,-68 16,-120 49,-157 34,-37 81,-56 142,-56 60,0 106,19 139,57 34,38 51,90 51,156zm-330 0c0,56 11,99 35,128 24,29 59,43 104,43 46,0 81,-14 104,-43 24,-29 36,-72 36,-128 0,-56 -12,-98 -35,-127 -24,-28 -58,-43 -104,-43 -46,0 -81,15 -105,44 -24,29 -35,71 -35,126zm751 -66l-79 0 0 274 -47 0 0 -274 -55 0 0 -21 55 -17 0 -18c0,-76 34,-114 100,-114 17,0 36,3 58,10l-12 38c-18,-6 -34,-9 -47,-9 -17,0 -30,6 -39,18 -9,11 -13,30 -13,56l0 21 79 0 0 36zm-196 0l-79 0 0 274 -47 0 0 -274 -56 0 0 -21 56 -17 0 -18c0,-76 33,-114 100,-114 16,0 35,3 57,10l-12 38c-18,-6 -33,-9 -46,-9 -18,0 -31,6 -40,18 -8,11 -12,30 -12,56l0 21 79 0 0 36z"/>
   <path class="fil3" d="M1508 3723l-100 0 -108 -175 -37 27 0 148 -88 0 0 -415 88 0 0 190 34 -49 112 -141 98 0 -145 184 146 231zm42 -399c0,-28 15,-42 47,-42 31,0 46,14 46,42 0,13 -3,24 -11,31 -8,8 -20,11 -35,11 -32,0 -47,-14 -47,-42zm90 399l-87 0 0 -317 87 0 0 317zm190 5c-37,0 -66,-14 -87,-43 -22,-29 -32,-69 -32,-120 0,-52 11,-92 32,-121 22,-29 52,-44 90,-44 40,0 70,16 91,47l3 0c-5,-24 -7,-45 -7,-64l0 -101 87 0 0 441 -66 0 -17 -41 -4 0c-19,31 -49,46 -90,46zm31 -69c22,0 38,-6 48,-19 11,-13 16,-35 17,-65l0 -10c0,-34 -5,-58 -16,-73 -10,-14 -27,-22 -51,-22 -19,0 -34,8 -45,25 -10,16 -16,40 -16,71 0,31 6,54 17,70 10,15 26,23 46,23zm457 -30c0,32 -11,57 -34,74 -22,17 -56,25 -101,25 -23,0 -43,-1 -59,-4 -16,-4 -31,-8 -46,-14l0 -71c17,7 35,13 55,18 20,6 37,8 53,8 31,0 47,-9 47,-27 0,-7 -2,-12 -6,-17 -5,-4 -12,-9 -22,-14 -10,-6 -24,-12 -41,-19 -24,-10 -42,-20 -53,-28 -12,-9 -20,-19 -25,-30 -6,-12 -8,-25 -8,-42 0,-28 11,-50 33,-65 21,-15 52,-23 92,-23 39,0 76,8 112,25l-26 62c-16,-7 -31,-12 -45,-17 -14,-4 -28,-6 -42,-6 -26,0 -38,7 -38,21 0,7 4,14 12,20 8,5 26,14 54,25 25,10 43,19 54,28 12,9 20,19 26,30 5,11 8,25 8,41zm311 94l-86 0 0 -415 237 0 0 72 -151 0 0 107 141 0 0 72 -141 0 0 164zm427 0l-17 -44 -2 0c-15,19 -30,32 -45,39 -16,7 -36,10 -61,10 -30,0 -54,-8 -71,-26 -18,-17 -27,-42 -27,-74 0,-34 12,-59 36,-74 23,-16 59,-25 106,-27l55 -2 0 -14c0,-32 -16,-48 -49,-48 -26,0 -55,8 -89,23l-29 -58c36,-19 77,-29 121,-29 43,0 75,10 98,28 23,19 34,47 34,85l0 211 -60 0zm-26 -147l-33 1c-25,1 -44,5 -57,14 -12,8 -18,21 -18,38 0,24 14,36 42,36 20,0 36,-6 48,-17 12,-12 18,-27 18,-46l0 -26zm396 53c0,32 -12,57 -34,74 -23,17 -57,25 -102,25 -23,0 -42,-1 -58,-4 -17,-4 -32,-8 -46,-14l0 -71c16,7 34,13 54,18 20,6 38,8 53,8 32,0 47,-9 47,-27 0,-7 -2,-12 -6,-17 -4,-4 -11,-9 -21,-14 -11,-6 -24,-12 -41,-19 -25,-10 -42,-20 -54,-28 -11,-9 -20,-19 -25,-30 -5,-12 -7,-25 -7,-42 0,-28 10,-50 32,-65 22,-15 53,-23 93,-23 38,0 75,8 111,25l-26 62c-16,-7 -30,-12 -44,-17 -14,-4 -28,-6 -42,-6 -26,0 -39,7 -39,21 0,7 4,14 13,20 8,5 26,14 54,25 24,10 42,19 54,28 11,9 20,19 25,30 6,11 9,25 9,41zm359 94l-86 0 0 -185c0,-46 -17,-69 -51,-69 -24,0 -42,8 -53,25 -10,16 -16,43 -16,80l0 149 -86 0 0 -441 86 0 0 90c0,7 0,23 -2,49l-2 25 5 0c19,-30 50,-46 92,-46 37,0 65,10 84,30 19,20 29,49 29,86l0 207zm85 -399c0,-28 16,-42 47,-42 32,0 47,14 47,42 0,13 -3,24 -11,31 -8,8 -20,11 -36,11 -31,0 -47,-14 -47,-42zm90 399l-86 0 0 -317 86 0 0 317zm160 -159c0,31 5,55 15,71 11,16 27,24 51,24 23,0 39,-8 49,-24 10,-16 15,-40 15,-71 0,-32 -5,-55 -15,-71 -10,-16 -27,-23 -50,-23 -23,0 -40,7 -50,23 -10,16 -15,39 -15,71zm219 0c0,51 -14,92 -41,121 -27,29 -65,43 -114,43 -30,0 -57,-6 -80,-20 -23,-13 -41,-32 -53,-57 -13,-25 -19,-54 -19,-87 0,-52 13,-92 40,-121 27,-29 65,-43 114,-43 31,0 57,7 81,20 23,13 41,32 53,57 13,25 19,54 19,87zm363 159l-86 0 0 -185c0,-23 -4,-40 -12,-52 -8,-11 -21,-17 -39,-17 -24,0 -42,8 -52,24 -11,16 -16,43 -16,81l0 149 -87 0 0 -317 66 0 12 40 5 0c9,-15 22,-26 39,-34 17,-8 36,-12 58,-12 37,0 65,10 84,30 19,20 28,49 28,86l0 207z"/>
   <path class="fil3" d="M1373 4406c0,31 -11,55 -33,72 -23,17 -53,26 -91,26 -42,0 -74,-6 -96,-16l0 -40c14,6 30,11 47,15 17,3 33,5 50,5 27,0 48,-5 61,-16 14,-10 21,-24 21,-42 0,-13 -2,-23 -7,-30 -5,-8 -13,-15 -25,-22 -11,-6 -29,-14 -52,-22 -32,-12 -56,-25 -70,-41 -14,-16 -21,-37 -21,-63 0,-27 10,-48 31,-64 20,-16 47,-24 80,-24 35,0 67,6 96,19l-12 35c-29,-12 -57,-18 -85,-18 -21,0 -38,5 -50,14 -12,9 -18,22 -18,39 0,12 2,22 6,29 5,8 12,15 23,22 10,6 27,13 49,21 36,13 62,27 75,42 14,15 21,35 21,59zm245 93l0 -170c0,-21 -4,-37 -14,-48 -10,-10 -25,-16 -46,-16 -28,0 -48,8 -61,23 -12,15 -19,39 -19,74l0 137 -39 0 0 -373 39 0 0 113c0,14 0,25 -1,34l2 0c8,-13 19,-23 33,-30 15,-7 31,-11 50,-11 32,0 56,8 72,23 16,15 24,39 24,73l0 171 -40 0zm348 -132c0,43 -11,77 -32,101 -22,24 -51,36 -89,36 -24,0 -45,-6 -63,-17 -18,-11 -32,-27 -42,-47 -10,-21 -15,-45 -15,-73 0,-42 11,-76 32,-100 22,-24 51,-35 89,-35 37,0 66,12 88,36 21,25 32,58 32,99zm-200 0c0,34 7,59 20,77 14,18 33,26 60,26 26,0 45,-8 59,-26 13,-17 20,-43 20,-77 0,-33 -7,-58 -20,-76 -14,-17 -34,-26 -60,-26 -26,0 -46,9 -59,26 -13,17 -20,43 -20,76zm392 137c-17,0 -33,-4 -47,-10 -14,-6 -26,-16 -35,-29l-3 0c2,15 3,30 3,44l0 107 -40 0 0 -380 32 0 6 36 2 0c10,-14 22,-25 35,-31 14,-6 29,-9 47,-9 35,0 62,11 81,35 19,24 28,57 28,100 0,43 -10,77 -29,101 -19,24 -46,36 -80,36zm-6 -239c-27,0 -46,8 -58,23 -12,14 -18,38 -18,71l0 8c0,37 6,64 18,79 12,16 32,24 59,24 23,0 41,-9 54,-27 12,-19 19,-44 19,-76 0,-33 -7,-58 -19,-75 -13,-18 -31,-27 -55,-27zm591 234l-46 0 -192 -294 -2 0c3,34 4,66 4,95l0 199 -37 0 0 -350 46 0 191 292 1 0c0,-4 -1,-18 -2,-41 -1,-24 -1,-40 -1,-50l0 -201 38 0 0 350zm317 -132c0,43 -11,77 -32,101 -22,24 -52,36 -90,36 -23,0 -44,-6 -62,-17 -18,-11 -32,-27 -42,-47 -10,-21 -15,-45 -15,-73 0,-42 10,-76 32,-100 21,-24 51,-35 89,-35 37,0 66,12 87,36 22,25 33,58 33,99zm-200 0c0,34 7,59 20,77 13,18 33,26 59,26 26,0 46,-8 60,-26 13,-17 20,-43 20,-77 0,-33 -7,-58 -20,-76 -14,-17 -34,-26 -60,-26 -26,0 -46,9 -59,26 -13,17 -20,43 -20,76zm474 132l-48 -154c-3,-10 -9,-31 -17,-64l-2 0c-6,28 -12,49 -17,64l-49 154 -46 0 -72 -263 42 0c17,66 30,117 39,151 8,34 13,58 15,70l2 0c1,-9 4,-21 8,-36 4,-14 7,-26 10,-34l48 -151 44 0 46 151c9,27 15,50 19,69l2 0c0,-6 2,-14 5,-26 3,-12 19,-77 50,-194l41 0 -73 263 -47 0z"/>
  </g>
 </g>
</svg>
