<?xml version="1.0" encoding="UTF-8"?>
<!DOCTYPE svg PUBLIC "-//W3C//DTD SVG 1.1//EN" "http://www.w3.org/Graphics/SVG/1.1/DTD/svg11.dtd">
<!-- Creator: CorelDRAW X7 -->
<svg xmlns="http://www.w3.org/2000/svg" xml:space="preserve" width="183.787mm" height="111.007mm" version="1.1" style="shape-rendering:geometricPrecision; text-rendering:geometricPrecision; image-rendering:optimizeQuality; fill-rule:evenodd; clip-rule:evenodd"
viewBox="0 0 34546 20866"
 xmlns:xlink="http://www.w3.org/1999/xlink">
 <defs>
  <style type="text/css">
   <![CDATA[
    .fil0 {fill:#FFE4D3}
    .fil3 {fill:#3FACE2;fill-rule:nonzero}
    .fil2 {fill:#3B3F4B;fill-rule:nonzero}
    .fil1 {fill:black;fill-rule:nonzero}
   ]]>
  </style>
 </defs>
 <g id="Layer_x0020_1">
  <metadata id="CorelCorpID_0Corel-Layer"/>
  <g id="_340105912">
   <rect class="fil0" width="34546" height="20866"/>
   <path class="fil1" d="M4522 8536l-135 0 0 -872c0,-73 2,-141 6,-206 -11,12 -25,24 -39,37 -14,13 -81,67 -199,164l-74 -96 324 -251 117 0 0 1224zm1564 -859c0,95 10,166 31,214 21,47 54,71 101,71 91,0 137,-95 137,-285 0,-188 -46,-282 -137,-282 -47,0 -80,23 -101,70 -21,47 -31,118 -31,212zm383 0c0,128 -21,224 -64,289 -42,65 -105,97 -187,97 -79,0 -139,-33 -182,-99 -44,-67 -65,-162 -65,-287 0,-126 20,-221 62,-285 41,-65 103,-97 185,-97 80,0 142,33 186,100 43,66 65,161 65,282zm353 491c0,96 10,167 31,214 21,47 55,71 101,71 47,0 82,-23 104,-70 22,-47 34,-118 34,-215 0,-96 -12,-166 -34,-212 -22,-46 -57,-69 -104,-69 -46,0 -80,23 -101,69 -21,46 -31,116 -31,212zm384 0c0,127 -21,223 -64,288 -42,65 -105,97 -188,97 -79,0 -140,-33 -182,-99 -43,-67 -64,-162 -64,-286 0,-127 21,-222 62,-286 42,-65 103,-97 184,-97 80,0 141,33 186,99 44,65 66,160 66,284zm-216 -856l-678 1224 -123 0 678 -1224 123 0zm1980 611c0,196 -50,350 -148,462 -100,112 -237,168 -414,168 -180,0 -319,-55 -417,-165 -98,-110 -147,-266 -147,-467 0,-199 49,-353 148,-463 98,-110 237,-164 418,-164 176,0 313,55 412,167 99,112 148,266 148,462zm-975 0c0,165 35,291 106,377 70,85 173,128 307,128 136,0 238,-42 308,-128 69,-85 103,-211 103,-377 0,-165 -34,-290 -103,-375 -69,-85 -171,-128 -306,-128 -136,0 -239,43 -309,129 -71,86 -106,210 -106,374zm2221 -196l-233 0 0 809 -139 0 0 -809 -164 0 0 -63 164 -50 0 -51c0,-225 98,-338 295,-338 49,0 106,10 171,29l-36 112c-54,-18 -99,-26 -137,-26 -53,0 -92,17 -117,52 -25,35 -37,91 -37,168l0 59 233 0 0 108zm-581 0l-233 0 0 809 -139 0 0 -809 -164 0 0 -63 164 -50 0 -51c0,-225 98,-338 295,-338 49,0 106,10 171,29l-36 112c-54,-18 -99,-26 -137,-26 -53,0 -91,17 -117,52 -25,35 -37,91 -37,168l0 59 233 0 0 108zm-4265 62c129,0 230,32 304,96 74,64 111,151 111,262 0,127 -40,226 -121,298 -81,72 -192,108 -333,108 -138,0 -243,-22 -316,-66l0 -134c39,25 88,45 146,59 58,14 115,21 171,21 99,0 175,-23 229,-69 55,-46 82,-113 82,-201 0,-170 -105,-256 -314,-256 -53,0 -124,8 -213,24l-72 -46 46 -573 609 0 0 129 -490 0 -31 367c64,-13 128,-19 192,-19z"/>
   <path class="fil1" d="M4596 11000l-295 -960 -7 0c10,195 16,325 16,390l0 570 -232 0 0 -1224 353 0 289 936 5 0 308 -936 353 0 0 1224 -242 0 0 -580c0,-27 0,-59 1,-94 1,-36 5,-131 11,-285l-7 0 -316 959 -237 0zm1465 -772c-54,0 -97,18 -127,52 -31,34 -49,83 -53,145l358 0c-1,-62 -17,-111 -49,-145 -32,-34 -75,-52 -129,-52zm36 789c-151,0 -268,-42 -353,-125 -85,-83 -127,-201 -127,-353 0,-157 39,-278 117,-364 79,-85 187,-128 325,-128 133,0 235,37 309,113 74,75 111,179 111,311l0 124 -604 0c3,73 24,130 64,170 41,41 97,61 170,61 56,0 109,-5 160,-17 50,-12 102,-30 157,-56l0 197c-45,23 -93,40 -143,50 -51,11 -113,17 -186,17zm1452 -17l-255 0 0 -547c0,-67 -12,-118 -36,-152 -24,-33 -62,-50 -115,-50 -71,0 -123,23 -154,71 -32,48 -48,127 -48,237l0 441 -255 0 0 -936 195 0 34 120 14 0c29,-45 68,-80 118,-103 50,-23 107,-34 170,-34 109,0 191,29 248,88 56,59 84,144 84,255l0 610zm452 -1224l12 19c-28,110 -77,243 -147,401l-184 0c39,-166 67,-305 84,-420l235 0zm767 946c0,96 -33,169 -100,219 -66,51 -166,76 -299,76 -68,0 -126,-5 -174,-14 -48,-9 -93,-23 -135,-41l0 -211c48,23 101,41 161,56 59,15 111,23 156,23 93,0 139,-27 139,-81 0,-20 -6,-36 -18,-48 -12,-13 -33,-27 -63,-43 -31,-16 -71,-35 -121,-56 -72,-30 -125,-58 -159,-84 -33,-25 -58,-55 -73,-88 -16,-33 -23,-74 -23,-123 0,-83 32,-147 96,-192 65,-46 156,-68 274,-68 113,0 223,24 329,73l-77 184c-47,-20 -90,-37 -131,-50 -41,-12 -82,-19 -125,-19 -75,0 -113,21 -113,61 0,23 13,43 37,60 24,17 77,41 159,74 73,30 127,58 161,83 34,26 59,56 75,89 16,34 24,74 24,120zm920 278l-255 0 0 -1224 701 0 0 212 -446 0 0 316 415 0 0 212 -415 0 0 484zm1259 0l-49 -128 -7 0c-43,55 -87,92 -132,113 -46,21 -105,32 -178,32 -90,0 -161,-26 -212,-77 -52,-52 -78,-125 -78,-220 0,-99 35,-173 105,-220 69,-47 174,-73 314,-78l162 -5 0 -41c0,-95 -49,-142 -146,-142 -74,0 -162,22 -263,67l-85 -172c108,-56 228,-84 359,-84 125,0 221,27 288,82 67,55 101,138 101,249l0 624 -179 0zm-75 -434l-98 3c-75,3 -130,16 -166,41 -37,24 -55,62 -55,112 0,72 42,108 124,108 59,0 106,-17 142,-51 35,-34 53,-80 53,-136l0 -77zm1169 156c0,96 -33,169 -100,219 -67,51 -166,76 -299,76 -68,0 -126,-5 -174,-14 -48,-9 -93,-23 -135,-41l0 -211c47,23 101,41 160,56 60,15 112,23 157,23 93,0 139,-27 139,-81 0,-20 -6,-36 -18,-48 -13,-13 -34,-27 -64,-43 -30,-16 -70,-35 -120,-56 -72,-30 -125,-58 -159,-84 -34,-25 -58,-55 -74,-88 -15,-33 -22,-74 -22,-123 0,-83 32,-147 96,-192 64,-46 156,-68 274,-68 113,0 222,24 329,73l-77 184c-47,-20 -91,-37 -131,-50 -41,-12 -83,-19 -125,-19 -75,0 -113,21 -113,61 0,23 12,43 37,60 24,17 77,41 159,74 73,30 126,58 160,83 34,26 60,56 76,89 16,34 24,74 24,120zm1062 278l-255 0 0 -547c0,-135 -50,-202 -151,-202 -71,0 -122,24 -154,73 -32,48 -48,127 -48,235l0 441 -255 0 0 -1303 255 0 0 266c0,20 -2,69 -5,145l-6 76 13 0c57,-92 147,-137 271,-137 110,0 193,29 250,88 57,59 85,144 85,255l0 610zm253 -1178c0,-83 46,-125 138,-125 93,0 139,42 139,125 0,39 -11,70 -34,92 -24,22 -58,33 -105,33 -92,0 -138,-42 -138,-125zm265 1178l-255 0 0 -936 255 0 0 936zm472 -470c0,93 15,163 45,210 31,47 80,71 149,71 68,0 116,-23 146,-70 30,-48 45,-118 45,-211 0,-93 -15,-162 -45,-208 -30,-46 -79,-70 -148,-70 -68,0 -117,24 -147,70 -30,45 -45,115 -45,208zm646 1c0,152 -40,271 -120,357 -80,86 -192,129 -336,129 -89,0 -169,-20 -237,-59 -69,-40 -121,-96 -158,-170 -37,-73 -55,-159 -55,-257 0,-154 39,-272 119,-357 80,-85 192,-127 336,-127 90,0 169,19 238,58 69,39 121,95 158,169 37,73 55,158 55,257zm1075 469l-256 0 0 -547c0,-67 -12,-118 -36,-152 -24,-33 -62,-50 -114,-50 -71,0 -123,23 -155,71 -31,48 -47,127 -47,237l0 441 -256 0 0 -936 195 0 35 120 14 0c28,-45 67,-80 117,-103 50,-23 107,-34 170,-34 109,0 192,29 248,88 56,59 85,144 85,255l0 610z"/>
   <path class="fil1" d="M4664 13018c0,92 -34,163 -99,213 -67,51 -156,77 -269,77 -123,0 -218,-16 -284,-48l0 -116c43,18 89,32 139,43 50,10 100,15 149,15 80,0 140,-15 181,-46 41,-30 61,-72 61,-126 0,-36 -7,-66 -22,-88 -14,-23 -38,-44 -72,-64 -34,-19 -85,-41 -154,-66 -96,-34 -165,-75 -206,-122 -41,-47 -62,-109 -62,-185 0,-79 30,-143 90,-190 60,-47 139,-71 237,-71 103,0 198,19 284,57l-37 104c-86,-36 -169,-54 -249,-54 -64,0 -114,14 -150,42 -36,27 -54,65 -54,114 0,36 7,65 20,88 14,23 36,44 67,63 32,19 80,40 144,63 109,39 183,80 224,125 41,44 62,102 62,172zm724 275l0 -501c0,-64 -14,-111 -43,-142 -29,-31 -74,-46 -135,-46 -82,0 -141,22 -179,66 -38,44 -56,117 -56,218l0 405 -118 0 0 -1101 118 0 0 334c0,40 -2,73 -6,99l7 0c23,-37 56,-66 99,-88 43,-21 91,-32 146,-32 95,0 166,23 213,68 48,45 71,116 71,214l0 506 -117 0zm1028 -388c0,127 -32,225 -96,296 -63,71 -151,107 -264,107 -69,0 -130,-16 -184,-49 -54,-33 -95,-79 -125,-140 -29,-61 -44,-132 -44,-214 0,-127 32,-225 95,-296 63,-70 151,-105 263,-105 109,0 195,36 259,108 64,72 96,170 96,293zm-591 0c0,99 20,175 60,226 39,52 97,78 174,78 77,0 136,-26 175,-77 40,-52 60,-128 60,-227 0,-99 -20,-173 -60,-225 -39,-51 -98,-76 -176,-76 -77,0 -135,25 -174,75 -39,51 -59,126 -59,226zm1158 403c-51,0 -97,-10 -139,-28 -41,-19 -77,-48 -105,-86l-8 0c5,45 8,88 8,129l0 318 -117 0 0 -1123 95 0 17 106 5 0c30,-43 66,-73 106,-92 40,-19 86,-28 138,-28 102,0 182,35 238,105 56,70 84,169 84,296 0,127 -29,226 -86,297 -57,71 -135,106 -236,106zm-17 -704c-80,0 -137,22 -172,65 -36,44 -54,114 -55,210l0 26c0,109 18,187 55,234 36,47 94,70 175,70 66,0 119,-27 157,-81 38,-54 57,-129 57,-224 0,-97 -19,-171 -57,-223 -38,-52 -92,-77 -160,-77zm1746 689l-137 0 -566 -868 -5 0c7,102 11,195 11,280l0 588 -111 0 0 -1034 136 0 564 865 5 0c-1,-13 -3,-54 -6,-123 -3,-69 -5,-119 -4,-149l0 -593 113 0 0 1034zm936 -388c0,127 -32,225 -96,296 -64,71 -151,107 -264,107 -69,0 -131,-16 -184,-49 -54,-33 -96,-79 -125,-140 -29,-61 -44,-132 -44,-214 0,-127 32,-225 95,-296 63,-70 151,-105 263,-105 109,0 195,36 259,108 64,72 96,170 96,293zm-591 0c0,99 20,175 59,226 40,52 98,78 175,78 77,0 135,-26 175,-77 40,-52 60,-128 60,-227 0,-99 -20,-173 -60,-225 -40,-51 -98,-76 -176,-76 -77,0 -135,25 -174,75 -39,51 -59,126 -59,226zm1401 388l-142 -454c-9,-28 -26,-91 -51,-190l-5 0c-19,83 -36,146 -50,191l-146 453 -136 0 -212 -775 123 0c50,195 89,343 115,445 26,102 41,170 45,206l5 0c6,-27 14,-62 25,-104 12,-43 22,-77 31,-102l142 -445 127 0 139 445c26,81 44,149 54,204l5 0c2,-17 7,-43 16,-78 8,-35 57,-226 147,-571l122 0 -215 775 -139 0z"/>
   <g>
    <path class="fil2" d="M22670 9816c0,0 -1876,16 -1188,-1134 641,-1069 7222,-2807 8711,-4939 222,-318 277,-731 109,-1080 -173,-361 -570,-622 -1481,126 0,0 1134,-800 1228,373 95,1174 -8194,4661 -8194,4661 0,0 -1537,723 -873,1644 466,646 1688,349 1688,349z"/>
    <path class="fil2" d="M23880 6324c0,0 2151,-411 3456,-1789 0,0 -1914,1221 -3456,1789z"/>
    <path class="fil2" d="M23231 6097c0,0 -880,-2298 700,-3259 1742,-1061 2957,350 3377,835 0,0 -1444,-1221 -3012,-244 -1380,860 -1065,2668 -1065,2668z"/>
    <path class="fil3" d="M28298 15812c0,0 -1333,-790 445,-2155 276,-212 492,-521 514,-890 2,-38 3,-77 2,-118 -568,-678 -1392,-1072 -2000,-1185 -292,523 -771,1322 -1156,2182 0,0 -449,-1239 -887,-2329 -1250,50 -1924,993 -1924,993 0,0 -281,850 266,2169 547,1318 516,4079 516,4079l6479 0c0,0 -39,-1102 -2255,-2746z"/>
    <path class="fil2" d="M28350 5430c0,0 -2202,1401 -4318,2123 0,0 475,1067 -290,2060 -764,993 -2424,1144 -1681,3885 0,0 -481,-2374 1376,-2784 1856,-410 5117,-1811 4913,-5284z"/>
   </g>
  </g>
 </g>
</svg>
