<?xml version="1.0" encoding="UTF-8"?>
<!DOCTYPE svg PUBLIC "-//W3C//DTD SVG 1.1//EN" "http://www.w3.org/Graphics/SVG/1.1/DTD/svg11.dtd">
<!-- Creator: CorelDRAW X7 -->
<svg xmlns="http://www.w3.org/2000/svg" xml:space="preserve" width="104.391mm" height="104.391mm" version="1.1" style="shape-rendering:geometricPrecision; text-rendering:geometricPrecision; image-rendering:optimizeQuality; fill-rule:evenodd; clip-rule:evenodd"
viewBox="0 0 1579 1579"
 xmlns:xlink="http://www.w3.org/1999/xlink">
 <defs>
  <style type="text/css">
   <![CDATA[
    .fil1 {fill:#FF334E}
    .fil0 {fill:white}
   ]]>
  </style>
 </defs>
 <g id="Layer_x0020_1">
  <metadata id="CorelCorpID_0Corel-Layer"/>
  <g id="_332921352">
   <circle class="fil0" cx="789" cy="789" r="789"/>
   <g>
    <path class="fil1" d="M999 769l0 -124c42,0 64,-5 93,17 25,19 41,67 56,96 2,4 5,7 6,10 3,4 4,7 -3,7l-146 0c-5,0 -6,-1 -6,-6zm302 94l0 108c0,25 -26,48 -52,48l-60 0c0,-16 -3,-34 -9,-49 -6,-14 -13,-26 -23,-35 -30,-32 -53,-38 -96,-38 -26,0 -62,20 -78,40 -5,7 -7,10 -12,18 -24,39 -8,61 -22,64l-234 0c-4,-18 -2,-32 -9,-49 -5,-11 -14,-27 -22,-35 -29,-30 -54,-38 -94,-38 -48,0 -89,38 -103,78 -16,47 12,44 -41,44 -30,0 -54,-24 -54,-54 0,-142 -13,-126 62,-126 28,0 138,4 156,-4 39,-17 35,-85 -3,-97 -14,-5 -129,-3 -153,-3 -23,0 -62,7 -62,-16 0,-27 0,-28 34,-28l250 0c60,0 65,-102 -4,-104l-198 0c-95,0 -82,11 -82,-57 0,-35 31,-54 66,-54l495 0c12,0 25,7 32,14 17,18 14,51 14,77 0,25 -4,38 6,40 16,4 52,-5 86,7 73,25 68,128 118,153 38,20 73,7 86,51 3,10 5,27 6,45z"/>
    <path class="fil1" d="M336 639c0,9 1,15 4,20 2,4 9,10 14,10l327 0c21,0 32,-60 -10,-60l-307 0c-19,0 -28,12 -28,30z"/>
    <path class="fil1" d="M560 1015c0,-53 76,-54 76,0 0,48 -76,47 -76,0zm-52 -8c0,31 5,49 27,70 34,35 91,35 125,0 38,-38 37,-96 -3,-132 -27,-24 -67,-29 -100,-13 -5,3 -8,4 -13,8l-10 9c-13,13 -26,34 -26,58z"/>
    <path class="fil1" d="M1033 1015c0,-14 4,-21 11,-29 0,0 1,-1 1,-1 1,0 2,-1 2,-2 23,-19 62,-3 62,24 0,14 0,24 -11,35 -23,20 -65,4 -65,-27zm-52 -2c0,74 89,121 152,66 28,-25 37,-74 20,-106 -11,-18 -20,-30 -40,-40 -64,-32 -132,16 -132,80z"/>
    <path class="fil1" d="M278 792c1,13 5,25 26,25l288 0c26,0 28,-38 18,-51 -3,-4 -9,-9 -16,-9l-298 0c-6,0 -18,12 -18,18l0 17z"/>
   </g>
  </g>
 </g>
</svg>
