<?xml version="1.0" encoding="UTF-8"?>
<!DOCTYPE svg PUBLIC "-//W3C//DTD SVG 1.1//EN" "http://www.w3.org/Graphics/SVG/1.1/DTD/svg11.dtd">
<!-- Creator: CorelDRAW X7 -->
<svg xmlns="http://www.w3.org/2000/svg" xml:space="preserve" width="104.391mm" height="104.391mm" version="1.1" style="shape-rendering:geometricPrecision; text-rendering:geometricPrecision; image-rendering:optimizeQuality; fill-rule:evenodd; clip-rule:evenodd"
viewBox="0 0 2491 2491"
 xmlns:xlink="http://www.w3.org/1999/xlink">
 <defs>
  <style type="text/css">
   <![CDATA[
    .fil1 {fill:#FF334E}
    .fil0 {fill:white}
   ]]>
  </style>
 </defs>
 <g id="Layer_x0020_1">
  <metadata id="CorelCorpID_0Corel-Layer"/>
  <g id="_336344616">
   <circle class="fil0" cx="1246" cy="1246" r="1246"/>
   <g>
    <path class="fil1" d="M950 1806c14,0 26,-19 54,-33 27,-13 42,-8 71,-2 93,19 281,51 375,61l84 6c44,0 184,-80 219,-101 17,-10 33,-19 50,-29 51,-33 119,-69 119,-129 0,-21 -17,-43 -37,-43 -40,0 -52,16 -91,34 -66,30 -193,72 -266,72 -59,0 -88,-2 -145,-16 -19,-5 -32,-9 -49,-16 -16,-7 -32,-15 -35,-31 32,0 56,7 85,12 56,9 69,9 123,9 45,0 100,-25 87,-74 -7,-26 -24,-27 -49,-35 -101,-32 -252,-87 -357,-87 -26,0 -51,4 -76,7 -20,3 -132,18 -141,22 -13,7 -13,58 -13,72l-17 271c-2,11 -2,30 9,30z"/>
    <path class="fil1" d="M1291 1013c0,-112 58,-184 136,-236 83,-55 206,-46 289,9 16,10 24,17 38,31 137,137 102,354 -72,442 -87,44 -200,33 -277,-25 -22,-16 -34,-27 -52,-49 -5,-6 -9,-12 -14,-19 -29,-43 -48,-96 -48,-153zm631 -21l0 41c-3,49 -15,97 -37,141 -10,21 -20,36 -34,54 -38,52 -84,88 -146,115 -35,16 -107,32 -145,30 -71,-4 -140,-23 -198,-64 -71,-48 -123,-121 -144,-204 -13,-50 -12,-62 -12,-113 0,-42 18,-103 36,-138 11,-21 37,-63 53,-79 8,-8 14,-14 21,-21 117,-118 306,-133 450,-39 9,6 17,12 26,19 8,7 13,13 22,20 8,7 5,5 11,13l29 34c42,55 64,122 68,191z"/>
    <path class="fil1" d="M675 1716c0,-78 111,-78 111,0 0,69 -111,69 -111,0zm-106 79c0,19 16,24 35,24 39,0 216,5 237,-6 8,-4 12,-12 15,-22l23 -305c0,-11 3,-20 2,-34 -3,-32 -45,-29 -79,-29 -26,0 -154,-13 -172,-6 -32,13 -26,62 -33,113l-14 131c-2,21 -5,47 -8,66 -3,23 -6,45 -6,68z"/>
    <path class="fil1" d="M1542 868c-6,2 -8,2 -14,4 -72,28 -75,114 -1,148 33,16 73,23 73,59 0,31 -41,37 -76,26 -22,-7 -36,-21 -47,2 -19,40 5,38 62,51 0,49 -1,45 34,45 18,0 14,-29 14,-47 47,-11 71,-40 71,-87 0,-89 -127,-81 -127,-127 0,-52 85,-19 98,-19 9,0 10,-7 12,-14 15,-35 1,-30 -42,-41 -15,-3 -9,-6 -10,-24 0,-25 -12,-21 -34,-21 -16,0 -13,28 -13,45z"/>
   </g>
  </g>
 </g>
</svg>
