<?xml version="1.0" encoding="UTF-8"?>
<!DOCTYPE svg PUBLIC "-//W3C//DTD SVG 1.1//EN" "http://www.w3.org/Graphics/SVG/1.1/DTD/svg11.dtd">
<!-- Creator: CorelDRAW X7 -->
<svg xmlns="http://www.w3.org/2000/svg" xml:space="preserve" width="313.267mm" height="97.53mm" version="1.1" style="shape-rendering:geometricPrecision; text-rendering:geometricPrecision; image-rendering:optimizeQuality; fill-rule:evenodd; clip-rule:evenodd"
viewBox="0 0 16871 5252"
 xmlns:xlink="http://www.w3.org/1999/xlink">
 <defs>
  <style type="text/css">
   <![CDATA[
    .fil4 {fill:#003363}
    .fil3 {fill:#237A9C}
    .fil2 {fill:#8CC53C}
    .fil0 {fill:#F05928}
    .fil1 {fill:#F8DC4F}
    .fil5 {fill:black;fill-rule:nonzero}
   ]]>
  </style>
 </defs>
 <g id="Layer_x0020_1">
  <metadata id="CorelCorpID_0Corel-Layer"/>
  <g id="_333722784">
   <path class="fil0" d="M4176 3787l-592 -87 -240 -32 -608 -90 -171 -22 -621 -89 -257 -39 -630 -89 -372 -52c-16,-37 -28,-192 -33,-237 -9,-81 -18,-161 -27,-241l-110 -981c-13,-124 -56,-376 -51,-488l1112 -5 -18 -432c-74,-9 -601,0 -721,0 -130,1 -623,-15 -708,22 -197,84 -116,349 -92,563l221 1973c30,262 212,237 458,272l3192 457c131,18 546,104 642,58 92,-44 109,-106 147,-218 32,-93 62,-181 94,-273l932 -2716c37,-106 150,-474 196,-536 64,-88 164,-77 274,-44l565 166c111,33 195,62 289,-11 66,-50 116,-157 60,-267 -45,-91 -112,-105 -226,-139 -191,-57 -375,-112 -565,-167 -326,-94 -585,-42 -773,237 -77,114 -422,1171 -482,1348l-654 1905c-27,76 -60,213 -100,271l-131 -17z"/>
   <polygon class="fil1" points="3584,3700 4176,3787 4971,115 4185,118 "/>
   <path class="fil2" d="M2736 3578l608 90c-6,-75 165,-1483 178,-1599 15,-132 182,-1515 181,-1605 -120,0 -239,1 -359,2 -60,0 -119,0 -178,0 -23,1 -162,-6 -177,9 -1,2 -255,2898 -253,3103z"/>
   <polygon class="fil3" points="1944,3467 2565,3556 2602,892 1881,896 "/>
   <polygon class="fil4" points="1057,3339 1687,3428 1593,1579 926,1582 "/>
   <path class="fil0" d="M840 4469c24,244 239,454 514,427 246,-25 450,-236 426,-514 -21,-247 -237,-455 -513,-429 -249,24 -454,239 -427,516z"/>
   <path class="fil0" d="M2982 4844c26,138 82,232 166,302 318,263 823,8 768,-427 -31,-236 -251,-444 -530,-403 -275,39 -450,290 -404,528z"/>
  </g>
  <path class="fil5" d="M7980 2826c0,167 -61,298 -180,394 -120,96 -287,144 -501,144 -197,0 -371,-37 -523,-111l0 -364c125,56 230,95 317,118 86,22 165,34 236,34 86,0 152,-17 198,-49 46,-33 69,-82 69,-147 0,-36 -10,-68 -30,-96 -21,-29 -50,-56 -89,-82 -40,-26 -119,-68 -240,-125 -112,-53 -197,-104 -254,-153 -56,-48 -101,-105 -135,-170 -34,-65 -50,-141 -50,-227 0,-164 55,-292 166,-386 111,-93 264,-140 459,-140 96,0 187,12 275,34 87,23 178,55 273,96l-126 305c-99,-41 -181,-69 -245,-85 -64,-16 -128,-24 -190,-24 -74,0 -131,17 -170,52 -40,34 -60,79 -60,135 0,34 8,65 24,90 16,26 42,50 77,75 34,24 117,67 248,129 172,83 291,165 355,248 63,83 96,184 96,305zm1606 512l-386 0 0 -824c0,-204 -75,-306 -227,-306 -107,0 -185,37 -233,110 -48,73 -72,192 -72,356l0 664 -384 0 0 -1965 384 0 0 401c0,31 -3,104 -8,220l-9 113 20 0c86,-137 222,-206 409,-206 165,0 291,44 377,133 85,89 129,217 129,384l0 920zm703 -708c0,139 23,245 69,316 46,72 120,108 224,108 102,0 176,-36 221,-107 45,-71 67,-177 67,-317 0,-140 -22,-245 -68,-314 -45,-70 -119,-105 -223,-105 -102,0 -177,35 -222,104 -45,69 -68,174 -68,315zm975 0c0,230 -60,410 -181,539 -121,130 -290,195 -506,195 -136,0 -255,-30 -359,-89 -103,-59 -183,-145 -238,-256 -56,-111 -83,-241 -83,-389 0,-230 60,-410 180,-538 120,-128 289,-191 507,-191 136,0 255,29 359,88 103,59 182,143 238,254 56,110 83,239 83,387zm1094 734c-166,0 -296,-61 -390,-181l-20 0c13,118 20,186 20,204l0 571 -385 0 0 -2032 313 0 54 184 18 0c90,-140 223,-209 400,-209 167,0 297,64 392,193 94,128 141,307 141,536 0,151 -22,282 -66,393 -44,111 -107,196 -189,254 -81,58 -178,87 -288,87zm-114 -1156c-94,0 -164,30 -208,88 -44,58 -67,155 -68,290l0 41c0,152 23,260 67,326 46,65 117,98 215,98 172,0 258,-142 258,-427 0,-138 -21,-242 -63,-311 -43,-70 -109,-105 -201,-105zm1787 1130l-445 -1448 -11 0c16,295 24,491 24,589l0 859 -350 0 0 -1846 533 0 437 1412 7 0 464 -1412 532 0 0 1846 -364 0 0 -874c0,-41 0,-89 2,-142 1,-54 7,-197 16,-430l-11 0 -476 1446 -358 0zm2210 -1163c-82,0 -146,25 -192,77 -46,52 -73,125 -80,220l541 0c-2,-95 -26,-168 -75,-220 -48,-52 -113,-77 -194,-77zm54 1189c-227,0 -405,-63 -533,-188 -128,-126 -191,-303 -191,-533 0,-237 59,-419 177,-549 118,-129 281,-193 490,-193 200,0 355,56 466,170 111,114 167,270 167,470l0 187 -911 0c5,109 37,195 97,257 61,61 146,92 256,92 85,0 165,-9 241,-27 76,-18 155,-46 238,-84l0 298c-68,33 -140,59 -217,75 -76,17 -169,25 -280,25z"/>
 </g>
</svg>
