<?xml version="1.0" encoding="UTF-8"?>
<!DOCTYPE svg PUBLIC "-//W3C//DTD SVG 1.1//EN" "http://www.w3.org/Graphics/SVG/1.1/DTD/svg11.dtd">
<!-- Creator: CorelDRAW X7 -->
<svg xmlns="http://www.w3.org/2000/svg" xml:space="preserve" width="26.04mm" height="24.7632mm" version="1.1" style="shape-rendering:geometricPrecision; text-rendering:geometricPrecision; image-rendering:optimizeQuality; fill-rule:evenodd; clip-rule:evenodd"
viewBox="0 0 1088 1034"
 xmlns:xlink="http://www.w3.org/1999/xlink">
 <defs>
  <style type="text/css">
   <![CDATA[
    .fil0 {fill:#FF9F00;fill-rule:nonzero}
   ]]>
  </style>
 </defs>
 <g id="Layer_x0020_1">
  <metadata id="CorelCorpID_0Corel-Layer"/>
  <path class="fil0" d="M564 61l108 335 351 -1 65 0 -53 38 -284 206 109 334 20 61 -52 -38 -284 -207 -284 207 -52 38 20 -61 109 -334 -285 -206 -52 -38 64 0 352 1 108 -335 20 -61 20 61zm73 362l-93 -287 -93 287 -5 15 -15 0 -302 -1 245 177 12 9 -5 14 -94 288 245 -178 12 -9 12 9 244 178 -94 -288 -4 -14 12 -9 245 -177 -302 1 -16 0 -4 -15z"/>
 </g>
</svg>
