<?xml version="1.0" encoding="UTF-8"?>
<!DOCTYPE svg PUBLIC "-//W3C//DTD SVG 1.1//EN" "http://www.w3.org/Graphics/SVG/1.1/DTD/svg11.dtd">
<!-- Creator: CorelDRAW X7 -->
<svg xmlns="http://www.w3.org/2000/svg" xml:space="preserve" width="104.391mm" height="104.391mm" version="1.1" style="shape-rendering:geometricPrecision; text-rendering:geometricPrecision; image-rendering:optimizeQuality; fill-rule:evenodd; clip-rule:evenodd"
viewBox="0 0 5906 5906"
 xmlns:xlink="http://www.w3.org/1999/xlink">
 <defs>
  <style type="text/css">
   <![CDATA[
    .fil1 {fill:#FF334E}
    .fil0 {fill:white}
   ]]>
  </style>
 </defs>
 <g id="Layer_x0020_1">
  <metadata id="CorelCorpID_0Corel-Layer"/>
  <g id="_334151912">
   <circle class="fil0" cx="2953" cy="2953" r="2953"/>
   <g>
    <path class="fil1" d="M1415 2880l0 142c21,45 29,97 59,156 23,45 51,88 79,134 84,138 176,248 270,368l200 226c238,275 835,803 1162,787 226,-11 431,-201 440,-419 4,-121 -109,-200 -168,-259 -60,-60 -158,-171 -221,-218 -101,-73 -251,-16 -333,37 -61,40 -72,63 -137,8 -45,-40 -78,-61 -115,-99 -541,-559 -425,-368 -326,-634 84,-229 -79,-305 -285,-511 -42,-42 -86,-104 -173,-111 -145,-11 -296,90 -367,196 -52,76 -51,126 -85,197z"/>
    <path class="fil1" d="M4409 3159l0 -210c-31,-72 -19,-210 -109,-415 -156,-354 -431,-627 -837,-760 -650,-214 -1271,148 -1498,501 204,97 131,103 208,135 214,-224 363,-393 769,-439 181,-20 370,12 521,70 156,60 271,148 367,244 424,425 435,1050 34,1525 -55,64 -110,83 -161,147 54,40 110,109 130,201 53,-24 176,-133 214,-178 383,-456 283,-616 362,-821z"/>
    <path class="fil1" d="M3025 2279l0 665c0,88 31,112 119,112 209,0 499,13 697,-14 22,-48 27,-72 11,-130 -96,-59 -496,-25 -654,-29 2,-166 0,-332 1,-498 0,-74 15,-172 -39,-203 -81,-46 -135,18 -135,97z"/>
   </g>
  </g>
 </g>
</svg>
